{
  "accessors": [
    {
      "bufferView": 2,
      "componentType": 5126,
      "count": 3908,
      "max": [
        12.16732120513916,
        3.3483502864837646,
        19.340803146362305
      ],
      "min": [
        -16.798112869262695,
        -30.989143371582031,
        -25.772216796875
      ],
      "type": "VEC3"
    },
    {
      "bufferView": 2,
      "byteOffset": 46896,
      "componentType": 5126,
      "count": 3908,
      "max": [
        0.99996507167816162,
        0.99999916553497314,
        0.99909842014312744
      ],
      "min": [
        -0.99949008226394653,
        -0.99978548288345337,
        -0.99948561191558838
      ],
      "type": "VEC3"
    },
    {
      "bufferView": 3,
      "componentType": 5126,
      "count": 3908,
      "max": [
        0.99999988079071045,
        0.99820858240127563,
        0.9994322657585144,
        1
      ],
      "min": [
        -0.99987471103668213,
        -0.99944543838500977,
        -0.99966967105865479,
        -1
      ],
      "type": "VEC4"
    },
    {
      "bufferView": 1,
      "componentType": 5126,
      "count": 3908,
      "max": [
        0.99728703498840332,
        0.88512575626373291
      ],
      "min": [
        5.5511151231257827e-17,
        0
      ],
      "type": "VEC2"
    },
    {
      "bufferView": 0,
      "componentType": 5125,
      "count": 20625,
      "max": [
        3907
      ],
      "min": [
        0
      ],
      "type": "SCALAR"
    },
    {
      "bufferView": 2,
      "byteOffset": 93792,
      "componentType": 5126,
      "count": 335,
      "max": [
        -3.2650861740112305,
        -15.945553779602051,
        4.4696335792541504
      ],
      "min": [
        -12.904078483581543,
        -30.989645004272461,
        -19.924472808837891
      ],
      "type": "VEC3"
    },
    {
      "bufferView": 2,
      "byteOffset": 97812,
      "componentType": 5126,
      "count": 335,
      "max": [
        0.99974000453948975,
        0.99246686697006226,
        0.99029666185379028
      ],
      "min": [
        -0.99959993362426758,
        -0.73046016693115234,
        -0.801230788230896
      ],
      "type": "VEC3"
    },
    {
      "bufferView": 3,
      "byteOffset": 62528,
      "componentType": 5126,
      "count": 335,
      "max": [
        0.99928814172744751,
        0.78729313611984253,
        0.99967670440673828,
        1
      ],
      "min": [
        -0.97446298599243164,
        -0.60860323905944824,
        -0.31949019432067871,
        1
      ],
      "type": "VEC4"
    },
    {
      "bufferView": 1,
      "byteOffset": 31264,
      "componentType": 5126,
      "count": 335,
      "max": [
        1,
        0.92809247970581055
      ],
      "min": [
        0.27624669671058655,
        0.086202502250671387
      ],
      "type": "VEC2"
    },
    {
      "bufferView": 0,
      "byteOffset": 82500,
      "componentType": 5125,
      "count": 1749,
      "max": [
        334
      ],
      "min": [
        0
      ],
      "type": "SCALAR"
    },
    {
      "bufferView": 2,
      "byteOffset": 101832,
      "componentType": 5126,
      "count": 90,
      "max": [
        1.1082491874694824,
        -2.0275602340698242,
        4.4098877906799316
      ],
      "min": [
        -2.0723819732666016,
        -2.6270675659179688,
        4.0172514915466309
      ],
      "type": "VEC3"
    },
    {
      "bufferView": 2,
      "byteOffset": 102912,
      "componentType": 5126,
      "count": 90,
      "max": [
        0.77778452634811401,
        0.098906740546226501,
        0.99998199939727783
      ],
      "min": [
        -0.77759569883346558,
        -0.48605197668075562,
        0.57261949777603149
      ],
      "type": "VEC3"
    },
    {
      "bufferView": 3,
      "byteOffset": 67888,
      "componentType": 5126,
      "count": 90,
      "max": [
        -0.61602038145065308,
        0.15863470733165741,
        0.77952927350997925,
        1
      ],
      "min": [
        -0.99983483552932739,
        -0.15185326337814331,
        -0.77911591529846191,
        1
      ],
      "type": "VEC4"
    },
    {
      "bufferView": 1,
      "byteOffset": 33944,
      "componentType": 5126,
      "count": 90,
      "max": [
        0.32605117559432983,
        0.015105564147233963
      ],
      "min": [
        0.039463814347982407,
        0
      ],
      "type": "VEC2"
    },
    {
      "bufferView": 0,
      "byteOffset": 89496,
      "componentType": 5125,
      "count": 384,
      "max": [
        89
      ],
      "min": [
        0
      ],
      "type": "SCALAR"
    },
    {
      "bufferView": 2,
      "byteOffset": 103992,
      "componentType": 5126,
      "count": 791,
      "max": [
        8.7937450408935547,
        4.4442968368530273,
        10.889396667480469
      ],
      "min": [
        -8.7937450408935547,
        -16.676193237304688,
        -8.5294027328491211
      ],
      "type": "VEC3"
    },
    {
      "bufferView": 2,
      "byteOffset": 113484,
      "componentType": 5126,
      "count": 791,
      "max": [
        0.99121594429016113,
        0.99342119693756104,
        0.99794167280197144
      ],
      "min": [
        -0.99330466985702515,
        -0.17950010299682617,
        -0.89684933423995972
      ],
      "type": "VEC3"
    },
    {
      "bufferView": 3,
      "byteOffset": 69328,
      "componentType": 5126,
      "count": 791,
      "max": [
        1,
        0.99749529361724854,
        0.9900544285774231,
        1
      ],
      "min": [
        -1,
        -0.99868649244308472,
        -0.99327093362808228,
        1
      ],
      "type": "VEC4"
    },
    {
      "bufferView": 1,
      "byteOffset": 34664,
      "componentType": 5126,
      "count": 791,
      "max": [
        0.99971741437911987,
        1
      ],
      "min": [
        0,
        0
      ],
      "type": "VEC2"
    },
    {
      "bufferView": 0,
      "byteOffset": 91032,
      "componentType": 5125,
      "count": 3678,
      "max": [
        790
      ],
      "min": [
        0
      ],
      "type": "SCALAR"
    },
    {
      "bufferView": 2,
      "byteOffset": 122976,
      "componentType": 5126,
      "count": 136,
      "max": [
        3.5185232162475586,
        -3.6876411437988281,
        9.4436130523681641
      ],
      "min": [
        -3.5185232162475586,
        -4.9138479232788086,
        8.1292018890380859
      ],
      "type": "VEC3"
    },
    {
      "bufferView": 2,
      "byteOffset": 124608,
      "componentType": 5126,
      "count": 136,
      "max": [
        0.34962031245231628,
        0.95623493194580078,
        0.89723283052444458
      ],
      "min": [
        -0.34962031245231628,
        -0.9612613320350647,
        0.15183813869953156
      ],
      "type": "VEC3"
    },
    {
      "bufferView": 3,
      "byteOffset": 81984,
      "componentType": 5126,
      "count": 136,
      "max": [
        0.54515832662582397,
        0.81627911329269409,
        0.83818209171295166,
        1
      ],
      "min": [
        -0.54521918296813965,
        0.23256710171699524,
        -0.80287986993789673,
        -1
      ],
      "type": "VEC4"
    },
    {
      "bufferView": 1,
      "byteOffset": 40992,
      "componentType": 5126,
      "count": 136,
      "max": [
        0.81329411268234253,
        0.99130362272262573
      ],
      "min": [
        0.74211966991424561,
        0.90301322937011719
      ],
      "type": "VEC2"
    },
    {
      "bufferView": 0,
      "byteOffset": 105744,
      "componentType": 5125,
      "count": 540,
      "max": [
        135
      ],
      "min": [
        0
      ],
      "type": "SCALAR"
    },
    {
      "bufferView": 2,
      "byteOffset": 126240,
      "componentType": 5126,
      "count": 96,
      "max": [
        12.145844459533691,
        4.2483291625976562,
        16.233211517333984
      ],
      "min": [
        -16.409542083740234,
        -31.013078689575195,
        -95.327919006347656
      ],
      "type": "VEC3"
    },
    {
      "bufferView": 2,
      "byteOffset": 127392,
      "componentType": 5126,
      "count": 96,
      "max": [
        0.99354094266891479,
        0.98185336589813232,
        0.18641844391822815
      ],
      "min": [
        -0.98267287015914917,
        -0.94236266613006592,
        -0.28227409720420837
      ],
      "type": "VEC3"
    },
    {
      "bufferView": 3,
      "byteOffset": 84160,
      "componentType": 5126,
      "count": 96,
      "max": [
        0.90164589881896973,
        0.97357660531997681,
        0.90774774551391602,
        1
      ],
      "min": [
        -0.66614228487014771,
        -0.89827042818069458,
        -0.0039610285311937332,
        1
      ],
      "type": "VEC4"
    },
    {
      "bufferView": 1,
      "byteOffset": 42080,
      "componentType": 5126,
      "count": 96,
      "max": [
        0.80194544792175293,
        1
      ],
      "min": [
        0,
        0
      ],
      "type": "VEC2"
    },
    {
      "bufferView": 0,
      "byteOffset": 107904,
      "componentType": 5125,
      "count": 264,
      "max": [
        95
      ],
      "min": [
        0
      ],
      "type": "SCALAR"
    }
  ],
  "asset": {
    "extras": {
      "author": "LisHard (https://sketchfab.com/lishard4)",
      "license": "CC-BY-4.0 (http://creativecommons.org/licenses/by/4.0/)",
      "source": "https://sketchfab.com/3d-models/joi-blade-runner-2049-9ac286c360fa4df9b76df4fa2c0a74d0",
      "title": "Joi - Blade Runner 2049"
    },
    "generator": "Sketchfab-5.22.0",
    "version": "2.0"
  },
  "bufferViews": [
    {
      "buffer": 0,
      "byteLength": 108960,
      "byteOffset": 0,
      "name": "floatBufferViews",
      "target": 34963
    },
    {
      "buffer": 0,
      "byteLength": 42848,
      "byteOffset": 108960,
      "byteStride": 8,
      "name": "floatBufferViews",
      "target": 34962
    },
    {
      "buffer": 0,
      "byteLength": 128544,
      "byteOffset": 151808,
      "byteStride": 12,
      "name": "floatBufferViews",
      "target": 34962
    },
    {
      "buffer": 0,
      "byteLength": 85696,
      "byteOffset": 280352,
      "byteStride": 16,
      "name": "floatBufferViews",
      "target": 34962
    }
  ],
  "buffers": [
    {
      "byteLength": 366048,
      "uri": "scene.bin"
    }
  ],
  "extensionsUsed": [
    "KHR_materials_unlit"
  ],
  "images": [
    {
      "uri": "textures/material_baseColor.png"
    },
    {
      "uri": "textures/material_emissive.jpeg"
    },
    {
      "uri": "textures/Joi2_mat_baseColor.png"
    },
    {
      "uri": "textures/Joi2_mat_emissive.jpeg"
    },
    {
      "uri": "textures/Joi1_mat_baseColor.png"
    },
    {
      "uri": "textures/Joi1_mat_emissive.jpeg"
    }
  ],
  "materials": [
    {
      "alphaMode": "BLEND",
      "doubleSided": true,
      "emissiveFactor": [
        1,
        1,
        1
      ],
      "emissiveTexture": {
        "index": 5,
        "texCoord": 0
      },
      "extensions": {
        "KHR_materials_unlit": {}
      },
      "name": "Joi1_mat",
      "pbrMetallicRoughness": {
        "baseColorFactor": [
          0,
          0,
          0,
          1
        ],
        "baseColorTexture": {
          "index": 4,
          "texCoord": 0
        },
        "metallicFactor": 0,
        "roughnessFactor": 1
      }
    },
    {
      "alphaMode": "BLEND",
      "doubleSided": true,
      "emissiveFactor": [
        1,
        1,
        1
      ],
      "emissiveTexture": {
        "index": 3,
        "texCoord": 0
      },
      "extensions": {
        "KHR_materials_unlit": {}
      },
      "name": "Joi2_mat",
      "pbrMetallicRoughness": {
        "baseColorFactor": [
          0,
          0,
          0,
          1
        ],
        "baseColorTexture": {
          "index": 2,
          "texCoord": 0
        },
        "metallicFactor": 0,
        "roughnessFactor": 1
      }
    },
    {
      "alphaMode": "BLEND",
      "doubleSided": true,
      "emissiveFactor": [
        1,
        1,
        1
      ],
      "emissiveTexture": {
        "index": 1,
        "texCoord": 0
      },
      "extensions": {
        "KHR_materials_unlit": {}
      },
      "name": "material",
      "pbrMetallicRoughness": {
        "baseColorFactor": [
          0,
          0,
          0,
          0.41025152440000001
        ],
        "baseColorTexture": {
          "index": 0,
          "texCoord": 0
        },
        "metallicFactor": 0,
        "roughnessFactor": 1
      }
    }
  ],
  "meshes": [
    {
      "name": "Joi1_L_Joi1_mat_0",
      "primitives": [
        {
          "attributes": {
            "NORMAL": 1,
            "POSITION": 0,
            "TANGENT": 2,
            "TEXCOORD_0": 3
          },
          "indices": 4,
          "material": 0,
          "mode": 4
        }
      ]
    },
    {
      "name": "Joi2_L_Joi1_mat_0",
      "primitives": [
        {
          "attributes": {
            "NORMAL": 6,
            "POSITION": 5,
            "TANGENT": 7,
            "TEXCOORD_0": 8
          },
          "indices": 9,
          "material": 0,
          "mode": 4
        }
      ]
    },
    {
      "name": "Eyes_L_Joi1_mat_0",
      "primitives": [
        {
          "attributes": {
            "NORMAL": 11,
            "POSITION": 10,
            "TANGENT": 12,
            "TEXCOORD_0": 13
          },
          "indices": 14,
          "material": 0,
          "mode": 4
        }
      ]
    },
    {
      "name": "Hair_L_Joi2_mat_0",
      "primitives": [
        {
          "attributes": {
            "NORMAL": 16,
            "POSITION": 15,
            "TANGENT": 17,
            "TEXCOORD_0": 18
          },
          "indices": 19,
          "material": 1,
          "mode": 4
        }
      ]
    },
    {
      "name": "Eyelashes_L_Joi2_mat_0",
      "primitives": [
        {
          "attributes": {
            "NORMAL": 21,
            "POSITION": 20,
            "TANGENT": 22,
            "TEXCOORD_0": 23
          },
          "indices": 24,
          "material": 1,
          "mode": 4
        }
      ]
    },
    {
      "name": "Hologram_L_H1_0",
      "primitives": [
        {
          "attributes": {
            "NORMAL": 26,
            "POSITION": 25,
            "TANGENT": 27,
            "TEXCOORD_0": 28
          },
          "indices": 29,
          "material": 2,
          "mode": 4
        }
      ]
    }
  ],
  "nodes": [
    {
      "children": [
        1
      ],
      "name": "RootNode (gltf orientation matrix)",
      "rotation": [
        -0.70710678118654746,
        -0,
        -0,
        0.70710678118654757
      ]
    },
    {
      "children": [
        2
      ],
      "name": "RootNode (model correction matrix)"
    },
    {
      "children": [
        3
      ],
      "matrix": [
        1,
        0,
        0,
        0,
        0,
        0,
        1,
        0,
        0,
        -1,
        0,
        0,
        0,
        0,
        0,
        1
      ],
      "name": "Joi.fbx"
    },
    {
      "children": [
        4
      ],
      "name": "RootNode"
    },
    {
      "children": [
        5,
        7,
        9,
        11,
        13,
        15
      ],
      "name": "Low"
    },
    {
      "children": [
        6
      ],
      "name": "Joi1_L"
    },
    {
      "mesh": 0,
      "name": "Joi1_L_Joi1_mat_0"
    },
    {
      "children": [
        8
      ],
      "name": "Joi2_L"
    },
    {
      "mesh": 1,
      "name": "Joi2_L_Joi1_mat_0"
    },
    {
      "children": [
        10
      ],
      "matrix": [
        1.8245478868484497,
        0,
        0,
        0,
        0,
        1.8245478868484497,
        0,
        0,
        0,
        0,
        1.8245478868484497,
        0,
        0.87963831424713135,
        -0.10457035899162292,
        0.79006993770599365,
        1
      ],
      "name": "Eyes_L"
    },
    {
      "mesh": 2,
      "name": "Eyes_L_Joi1_mat_0"
    },
    {
      "children": [
        12
      ],
      "name": "Hair_L"
    },
    {
      "mesh": 3,
      "name": "Hair_L_Joi2_mat_0"
    },
    {
      "children": [
        14
      ],
      "matrix": [
        1,
        0,
        0,
        0,
        0,
        1,
        0,
        0,
        0,
        0,
        1,
        0,
        0,
        0,
        0.038921486586332321,
        1
      ],
      "name": "Eyelashes_L"
    },
    {
      "mesh": 4,
      "name": "Eyelashes_L_Joi2_mat_0"
    },
    {
      "children": [
        16
      ],
      "name": "Hologram_L"
    },
    {
      "mesh": 5,
      "name": "Hologram_L_H1_0"
    }
  ],
  "samplers": [
    {
      "magFilter": 9729,
      "minFilter": 9987,
      "wrapS": 10497,
      "wrapT": 10497
    }
  ],
  "scene": 0,
  "scenes": [
    {
      "name": "OSG_Scene",
      "nodes": [
        0
      ]
    }
  ],
  "textures": [
    {
      "sampler": 0,
      "source": 0
    },
    {
      "sampler": 0,
      "source": 1
    },
    {
      "sampler": 0,
      "source": 2
    },
    {
      "sampler": 0,
      "source": 3
    },
    {
      "sampler": 0,
      "source": 4
    },
    {
      "sampler": 0,
      "source": 5
    }
  ]
}

